<svg xmlns="http://www.w3.org/2000/svg" xmlns:xlink="http://www.w3.org/1999/xlink" id="Layer_1" x="0" y="0" enable-background="new 0 0 50 50" version="1.1" viewBox="0 0 50 50" xml:space="preserve"><style type="text/css">.st0{fill:#e6e6e6}.st1{fill:#c2c2c2}.st2{fill:#939393}.st3{fill:#2f2f2f}.st4{fill:#0078d4}</style><title>EDUAdmins-50px</title><path d="M25.2,47.2c-12.3,0-22.3-10-22.3-22.3s10-22.3,22.3-22.3s22.3,10,22.3,22.3v0C47.6,37.2,37.6,47.2,25.2,47.2	C25.3,47.2,25.2,47.2,25.2,47.2z" class="st0"/><path d="M25.2,3.7c11.7,0,21.1,9.5,21.1,21.1S36.9,46,25.2,46S4.1,36.5,4.1,24.9l0,0C4.1,13.2,13.6,3.7,25.2,3.7	L25.2,3.7 M25.2,1.4c-13,0-23.5,10.5-23.5,23.5s10.5,23.5,23.5,23.5s23.5-10.5,23.5-23.5l0,0C48.7,11.9,38.2,1.4,25.2,1.4	C25.2,1.4,25.2,1.4,25.2,1.4z" class="st1"/><g><title>MapPin-blue</title><polygon points="34.5 27.8 32.5 21.8 28 21.8 27.9 27.8" class="st2"/><polygon points="23.5 21.8 19 21.8 17.1 27.8 23.4 27.8" class="st2"/><path d="M37.9,35.3l-2.2-6.6H28l0,0c0,1.4-1.1,2.5-2.5,2.5c-1.4,0-2.5-1.1-2.5-2.5h-7.5l-2.2,6.6H37.9z" class="st2"/><path d="M25.7,30c-0.4,0-0.7-0.3-0.7-0.7V18.8c0-0.4,0.3-0.7,0.7-0.7s0.7,0.3,0.7,0.7v10.4C26.4,29.7,26.1,30,25.7,30z" class="st3"/><path d="M29.1,13.6c-0.2-0.4-0.5-0.8-0.8-1.2c-0.3-0.3-0.7-0.6-1.2-0.8c-0.5-0.2-1-0.3-1.5-0.3c-0.5,0-1,0.1-1.5,0.3 c-0.4,0.2-0.8,0.5-1.2,0.8c-0.3,0.3-0.6,0.7-0.8,1.2c-0.2,0.5-0.3,1-0.3,1.5c0,0.5,0.1,1,0.3,1.5c0.2,0.4,0.5,0.9,0.8,1.2 c0.2,0.2,0.3,0.3,0.5,0.4c0.2,0.1,0.4,0.3,0.7,0.4l0,0c0.2,0.1,0.5,0.2,0.7,0.2c0.5,0.1,1,0.1,1.5,0c0.3,0,0.5-0.1,0.7-0.2l0,0 c0.2-0.1,0.5-0.2,0.7-0.4c0.2-0.1,0.4-0.3,0.5-0.4c0.3-0.3,0.6-0.8,0.7-1.2c0.2-0.5,0.3-1,0.3-1.5C29.4,14.6,29.3,14.1,29.1,13.6z" class="st4"/></g></svg>