<svg xmlns="http://www.w3.org/2000/svg" id="Layer_1" data-name="Layer 1" viewBox="0 0 50 50"><defs><style>.cls-1{fill:#2f2f2f}.cls-2{fill:#fff}.cls-3{fill:#7f7f7f}.cls-4{fill:#0078d4}.cls-5{fill:#c2c2c2}</style></defs><title>EDUDevelopers-50px</title><circle cx="31.67" cy="25.49" r="17.06" class="cls-1"/><g id="user"><path d="M31.67,26.54a6.49,6.49,0,1,0-6-9.18A6.75,6.75,0,0,0,25.15,20a6.55,6.55,0,0,0,6.52,6.52Z" class="cls-2"/><path d="M31.67,28.11a9.72,9.72,0,0,0-9.74,9.74H41.41A9.72,9.72,0,0,0,31.67,28.11Z" class="cls-2"/></g><polygon points="42.41 45.61 20.92 45.61 19.72 32.57 43.62 32.57 42.41 45.61" class="cls-3"/><rect width="21.49" height=".64" x="20.84" y="46.05" class="cls-1"/><path d="M12,23a9.26,9.26,0,1,1,9.26-9.26A9.26,9.26,0,0,1,12,23Z" class="cls-4"/><path d="M12,5.45A8.25,8.25,0,1,1,3.74,13.7,8.26,8.26,0,0,1,12,5.45h0m0-2A10.26,10.26,0,1,0,22.25,13.7,10.26,10.26,0,0,0,12,3.44Z" class="cls-5"/><polygon points="6.72 10 6.72 10.8 17.26 10.88 17.14 10 6.72 10" class="cls-2"/><path d="M9.94,13.1l.32.32L9.05,14.63l1.21,1.2-.32.33L8.41,14.63Zm.84,4.3,1.85-5.51h.49L11.27,17.4Zm3.14-4.3,1.53,1.53-1.53,1.53-.32-.33,1.21-1.2L13.6,13.42Z" class="cls-2"/></svg>