<svg xmlns="http://www.w3.org/2000/svg" xmlns:xlink="http://www.w3.org/1999/xlink" id="Layer_1" x="0" y="0" enable-background="new 0 0 400 140" version="1.1" viewBox="0 0 400 140" xml:space="preserve"><style type="text/css">.st0{fill:#939393}.st1{fill:#2f2f2f}.st2{fill:#c2c2c2}.st3,.st4{opacity:.25;fill:#e6e6e6;enable-background:new}.st4{fill:#f3f3f3}</style><title>Surface-Devices-400x140</title><path d="M80.7,15h118c2.8,0,5,2.2,5,5v78c0,2.8-2.2,5-5,5h-118c-2.8,0-5-2.2-5-5V20C75.7,17.3,77.9,15,80.7,15z" class="st0"/><rect width="50" height="4.8" x="116.7" y="119.1" class="st0"/><path d="M167.7,101l-0.8,13.1c-0.3,1.6-1.7,2.8-3.3,2.9h-45.2c-1.5,0-2.8-1.3-2.8-2.8v0l0,0l-0.9-13.2h-3v19h59v-19	H167.7z" class="st0"/><path d="M315.7,122V62.5c0-1.4-1.1-2.5-2.4-2.5c0,0,0,0,0,0h-87.1c-1.4,0-2.5,1.1-2.5,2.5c0,0,0,0,0,0l0,0V122H315.7z" class="st0"/><path d="M322.6,124H216.8c-3.5,0-4.1-5-4.1-5h114C326.7,119,325.3,124,322.6,124z" class="st0"/><rect width="1" height="1" x="268.7" y="62" class="st1"/><rect width="120" height="80" x="79.3" y="19" class="st2"/><polygon points="199.3 19 151.3 19 199.3 63.9" class="st3"/><rect width="86" height="53" x="226.3" y="63" class="st2"/><polygon points="311.3 63 273 63 311.3 98.9" class="st4"/></svg>